<?xml version="1.0" encoding="UTF-8"?>
<!DOCTYPE svg PUBLIC "-//W3C//DTD SVG 1.1//EN" "http://www.w3.org/Graphics/SVG/1.1/DTD/svg11.dtd">
<!-- Creator: CorelDRAW 2021 (64-Bit) -->
<svg xmlns="http://www.w3.org/2000/svg" xml:space="preserve" width="1.82916in" height="0.408461in" version="1.1" style="shape-rendering:geometricPrecision; text-rendering:geometricPrecision; image-rendering:optimizeQuality; fill-rule:evenodd; clip-rule:evenodd"
viewBox="0 0 3022.62 674.97"
 xmlns:xlink="http://www.w3.org/1999/xlink"
 xmlns:xodm="http://www.corel.com/coreldraw/odm/2003">
 <defs>
  <style type="text/css">
   <![CDATA[
    .str0 {stroke:white;stroke-width:60.47;stroke-miterlimit:10}
    .fil2 {fill:none;fill-rule:nonzero}
    .fil1 {fill:white;fill-rule:nonzero}
    .fil0 {fill:white;fill-rule:nonzero}
    .fil3 {fill:white;fill-rule:nonzero}
   ]]>
  </style>
 </defs>
 <g id="Layer_x0020_1">
  <metadata id="CorelCorpID_0Corel-Layer"/>
  <g id="_1866488663632">
   <path class="fil0" d="M615.5 644.73c0,0 -18.67,-480.43 101.66,-625.66l-265.26 0c-13.68,16.51 -25.55,37.34 -35.87,61.31l192.37 0c0,0 -118.11,120.4 -118.11,564.35l125.22 0z"/>
   <path class="fil0" d="M469.29 644.73c0,0 -18.67,-395.37 101.66,-540.6l-265.27 0c-20.19,24.37 -36.46,61.25 -49.57,96.65l213.73 0c0,0 -134.01,163.54 -119.24,443.95l118.69 0z"/>
   <path class="fil1" d="M329.56 644.73c0,0 -18.67,-275.93 101.66,-421.16l-265.26 0c-120.33,145.23 -101.66,421.16 -101.66,421.16l265.26 0zm-45.94 -199.03c0,57.63 -39.24,104.34 -87.65,104.34 -48.4,0 -87.65,-46.71 -87.65,-104.34 0,-57.62 39.24,-104.34 87.65,-104.34 48.4,0 87.65,46.72 87.65,104.34z"/>
   <line class="fil2 str0" x1="-0" y1="644.73" x2="683.87" y2= "644.73" />
   <path class="fil3" d="M178.02 523.73l1.57 -15.98c-7.89,-1.79 -14.23,-4.21 -18.99,-7.27 -4.77,-3.06 -8.67,-7.66 -11.76,-13.75 -3.08,-6.1 -4.5,-13.3 -4.28,-21.66l16.36 -1.5c0.4,8.74 1.96,15.28 4.72,19.62 3.94,6.12 9.04,9.84 15.28,11.12l4.94 -50.15c-6.43,-2.34 -12.88,-5.78 -19.37,-10.3 -4.83,-3.32 -8.36,-7.64 -10.64,-12.93 -2.27,-5.32 -3.08,-11.14 -2.45,-17.53 1.12,-11.35 6.07,-20.15 14.83,-26.41 5.84,-4.2 14.16,-6.32 24.88,-6.34l0.75 -7.62 9.49 0.93 -0.75 7.62c9.19,1.79 16.28,5.26 21.27,10.37 6.4,6.49 9.8,14.9 10.24,25.18l-16.68 0.93c-0.32,-6.41 -1.82,-11.48 -4.49,-15.14 -2.65,-3.68 -6.54,-6.3 -11.66,-7.9l-4.53 46.01c7.86,2.84 13.02,4.97 15.53,6.34 4.78,2.67 8.56,5.73 11.38,9.19 2.86,3.43 4.89,7.38 6.17,11.88 1.26,4.46 1.64,9.24 1.15,14.26 -1.09,11.05 -5.52,19.9 -13.3,26.62 -7.79,6.7 -17.3,9.74 -28.55,9.19l-1.59 16.16 -9.49 -0.93zm13.77 -139.83c-6.3,0.33 -11.47,2.33 -15.43,6.04 -3.98,3.67 -6.24,8.25 -6.79,13.76 -0.53,5.45 0.53,10.16 3.21,14.12 2.68,3.96 7.57,7.25 14.69,9.85l4.31 -43.77zm-1.39 111.34c6.31,-0.14 11.72,-2.34 16.24,-6.56 4.5,-4.21 7.1,-9.73 7.77,-16.51 0.57,-5.81 -0.4,-10.58 -2.94,-14.4 -2.54,-3.79 -8.01,-7.21 -16.37,-10.25l-4.7 47.73z"/>
  </g>
  <g id="_1866488662480">
   <path class="fil0" d="M1072.87 5.33l-108.08 0 0 467.02 73.39 0 0 -175.47 34.7 0c73.39,0 109.41,-40.69 109.41,-115.42l0 -60.71c0,-74.72 -36.02,-115.42 -109.41,-115.42zm0 66.72c23.35,0 36.03,10.68 36.03,44.03l0 70.05c0,33.36 -12.68,44.03 -36.03,44.03l-34.7 0 0 -158.12 34.7 0zm210.83 400.3l73.39 0 0 -154.79 92.74 -312.23 -70.05 0 -56.04 212.82 -56.05 -212.82 -76.72 0 92.74 312.23 0 154.79zm303.56 -467.02l-108.08 0 0 467.02 73.39 0 0 -175.47 34.7 0c73.39,0 109.41,-40.69 109.41,-115.42l0 -60.71c0,-74.72 -36.02,-115.42 -109.41,-115.42zm0 66.72c23.35,0 36.03,10.68 36.03,44.03l0 70.05c0,33.36 -12.68,44.03 -36.03,44.03l-34.7 0 0 -158.12 34.7 0zm216.82 0l126.76 0 0 -66.72 -200.15 0 0 467.02 200.15 0 0 -66.72 -126.76 0 0 -136.77 100.75 0 0 -66.72 -100.75 0 0 -130.1zm400.3 400.3c-7.34,-17.34 -8.01,-34.03 -8.01,-56.71l0 -72.05c0,-48.7 -12,-84.06 -48.7,-99.41 32.69,-15.35 48.04,-46.7 48.04,-94.74l0 -36.69c0,-72.06 -32.69,-107.42 -108.75,-107.42l-110.75 0 0 467.02 73.39 0 0 -190.14 25.35 0c33.36,0 48.04,16.01 48.04,59.38l0 73.39c0,38.03 2.67,45.36 6.67,57.37l74.73 0zm-119.42 -400.3c26.02,0 37.36,14.68 37.36,48.04l0 46.03c0,37.36 -16.67,49.37 -44.03,49.37l-28.69 0 0 -143.44 35.37 0zm322.24 -66.72l-107.41 0 -74.73 467.02 67.39 0 12.67 -84.73 90.07 0 12.68 84.73 74.06 0 -74.73 -467.02zm-57.37 82.73l35.36 236.18 -70.72 0 35.36 -236.18zm166.12 384.29l116.09 0c73.39,0 109.41,-40.7 109.41,-115.42l0 -236.18c0,-74.72 -36.03,-115.42 -109.41,-115.42l-116.09 0 0 467.02zm114.76 -400.3c23.35,0 37.36,12.01 37.36,45.36l0 242.85c0,33.36 -14.01,45.36 -37.36,45.36l-41.37 0 0 -333.58 41.37 0zm148.1 45.36c0,133.43 143.45,151.45 143.45,247.52 0,33.36 -14.68,45.37 -38.03,45.37 -23.35,0 -38.03,-12.01 -38.03,-45.37l0 -36.69 -69.38 0 0 32.03c0,74.72 37.36,117.42 109.41,117.42 72.05,0 109.41,-42.7 109.41,-117.42 0,-133.43 -143.44,-151.45 -143.44,-247.52 0,-33.36 13.34,-46.03 36.69,-46.03 23.35,0 36.69,12.67 36.69,46.03l0 22.68 69.38 0 0 -18.01c0,-74.72 -36.69,-117.42 -108.08,-117.42 -71.38,0 -108.08,42.7 -108.08,117.42z"/>
   <path class="fil0" d="M977.75 628.95l20.06 -1.99c1.2,6.71 3.62,11.62 7.3,14.77 3.68,3.16 8.63,4.72 14.87,4.72 6.59,0 11.57,-1.4 14.92,-4.2 3.34,-2.8 5.02,-6.07 5.02,-9.81 0,-2.42 -0.71,-4.46 -2.11,-6.17 -1.4,-1.68 -3.86,-3.16 -7.38,-4.38 -2.39,-0.85 -7.85,-2.32 -16.38,-4.46 -10.98,-2.75 -18.68,-6.12 -23.11,-10.13 -6.24,-5.61 -9.34,-12.47 -9.34,-20.55 0,-5.2 1.47,-10.08 4.38,-14.61 2.94,-4.53 7.16,-7.97 12.69,-10.34 5.52,-2.37 12.16,-3.56 19.99,-3.56 12.73,0 22.33,2.82 28.76,8.49 6.45,5.67 9.82,13.21 10.15,22.67l-20.63 0.71c-0.88,-5.26 -2.75,-9.03 -5.62,-11.33 -2.87,-2.3 -7.18,-3.46 -12.92,-3.46 -5.93,0 -10.57,1.24 -13.92,3.7 -2.16,1.59 -3.25,3.7 -3.25,6.35 0,2.42 1.02,4.48 3.06,6.19 2.58,2.21 8.87,4.48 18.85,6.86 9.98,2.35 17.36,4.81 22.12,7.33 4.79,2.54 8.54,5.97 11.24,10.36 2.7,4.38 4.05,9.79 4.05,16.21 0,5.84 -1.61,11.31 -4.86,16.41 -3.25,5.1 -7.83,8.89 -13.75,11.36 -5.93,2.49 -13.32,3.72 -22.17,3.72 -12.87,0 -22.76,-2.96 -29.66,-8.91 -6.9,-5.93 -11,-14.58 -12.35,-25.94zm100.29 -68.86l20.63 0 0 55.2c0,8.77 0.26,14.44 0.76,17.02 0.87,4.18 2.94,7.54 6.21,10.06 3.3,2.54 7.78,3.79 13.47,3.79 5.76,0 10.12,-1.18 13.06,-3.58 2.94,-2.39 4.69,-5.31 5.28,-8.8 0.6,-3.48 0.9,-9.24 0.9,-17.31l0 -56.39 20.63 0 0 53.56c0,12.24 -0.55,20.89 -1.67,25.94 -1.11,5.05 -3.15,9.32 -6.13,12.8 -2.97,3.49 -6.95,6.24 -11.93,8.3 -5,2.06 -11.5,3.1 -19.54,3.1 -9.69,0 -17.05,-1.11 -22.05,-3.36 -5,-2.25 -8.96,-5.17 -11.88,-8.78 -2.91,-3.6 -4.81,-7.35 -5.74,-11.31 -1.35,-5.84 -2.02,-14.46 -2.02,-25.87l0 -54.39zm102.74 101.86l0 -101.86 32.98 0c12.49,0 20.63,0.5 24.42,1.52 5.83,1.54 10.71,4.87 14.65,9.99 3.94,5.12 5.9,11.74 5.9,19.84 0,6.26 -1.14,11.5 -3.39,15.77 -2.28,4.27 -5.15,7.61 -8.63,10.05 -3.49,2.42 -7.05,4.03 -10.65,4.81 -4.91,0.97 -12,1.47 -21.29,1.47l-13.38 0 0 38.41 -20.63 0zm20.63 -84.65l0 29.02 11.22 0c8.09,0 13.47,-0.55 16.19,-1.61 2.73,-1.07 4.86,-2.73 6.4,-5.02 1.54,-2.28 2.32,-4.91 2.32,-7.94 0,-3.73 -1.09,-6.79 -3.25,-9.2 -2.18,-2.42 -4.91,-3.94 -8.25,-4.55 -2.45,-0.45 -7.35,-0.69 -14.75,-0.69l-9.89 0zm74.26 84.65l0 -101.86 75.4 0 0 17.21 -54.77 0 0 22.62 50.93 0 0 17.21 -50.93 0 0 27.6 56.76 0 0 17.21 -77.39 0zm94.89 0l0 -101.86 43.32 0c10.88,0 18.8,0.92 23.73,2.75 4.96,1.83 8.89,5.07 11.85,9.75 2.97,4.69 4.46,10.03 4.46,16.05 0,7.66 -2.22,13.97 -6.71,18.94 -4.48,4.98 -11.17,8.11 -20.08,9.41 4.44,2.58 8.09,5.43 10.96,8.54 2.89,3.1 6.78,8.63 11.66,16.55l12.43 19.87 -24.59 0 -14.75 -22.24c-5.28,-7.89 -8.91,-12.87 -10.88,-14.94 -1.95,-2.04 -4.01,-3.46 -6.19,-4.22 -2.21,-0.76 -5.67,-1.14 -10.41,-1.14l-4.17 0 0 42.53 -20.63 0zm20.63 -58.75l15.22 0c9.86,0 16,-0.43 18.47,-1.26 2.44,-0.83 4.38,-2.28 5.76,-4.32 1.4,-2.04 2.09,-4.6 2.09,-7.66 0,-3.44 -0.92,-6.19 -2.75,-8.32 -1.82,-2.11 -4.4,-3.44 -7.73,-3.98 -1.68,-0.24 -6.68,-0.36 -15.01,-0.36l-16.05 0 0 25.89zm169.01 21.34l0 -17.21 44.25 0 0 40.64c-4.29,4.2 -10.53,7.87 -18.71,11.07 -8.16,3.17 -16.43,4.76 -24.83,4.76 -10.64,0 -19.91,-2.22 -27.83,-6.71 -7.9,-4.48 -13.85,-10.91 -17.83,-19.23 -3.98,-8.32 -5.97,-17.4 -5.97,-27.19 0,-10.62 2.22,-20.06 6.66,-28.33 4.46,-8.26 10.95,-14.61 19.51,-19.02 6.54,-3.39 14.65,-5.07 24.38,-5.07 12.63,0 22.52,2.65 29.63,7.97 7.09,5.33 11.66,12.66 13.71,22.05l-20.49 3.84c-1.42,-5 -4.12,-8.96 -8.09,-11.88 -3.94,-2.89 -8.87,-4.34 -14.79,-4.34 -8.96,0 -16.1,2.85 -21.38,8.56 -5.29,5.71 -7.94,14.18 -7.94,25.39 0,12.12 2.68,21.2 8.03,27.25 5.39,6.04 12.4,9.08 21.1,9.08 4.29,0 8.61,-0.85 12.92,-2.54 4.34,-1.68 8.04,-3.75 11.14,-6.17l0 -12.92 -23.47 0zm63.28 37.41l0 -101.86 43.32 0c10.88,0 18.8,0.92 23.73,2.75 4.96,1.83 8.89,5.07 11.85,9.75 2.97,4.69 4.46,10.03 4.46,16.05 0,7.66 -2.22,13.97 -6.71,18.94 -4.48,4.98 -11.17,8.11 -20.08,9.41 4.44,2.58 8.09,5.43 10.96,8.54 2.89,3.1 6.78,8.63 11.66,16.55l12.43 19.87 -24.59 0 -14.75 -22.24c-5.28,-7.89 -8.91,-12.87 -10.88,-14.94 -1.95,-2.04 -4.01,-3.46 -6.19,-4.22 -2.21,-0.76 -5.67,-1.14 -10.41,-1.14l-4.17 0 0 42.53 -20.63 0zm20.63 -58.75l15.22 0c9.86,0 16,-0.43 18.47,-1.26 2.44,-0.83 4.38,-2.28 5.76,-4.32 1.4,-2.04 2.09,-4.6 2.09,-7.66 0,-3.44 -0.92,-6.19 -2.75,-8.32 -1.82,-2.11 -4.4,-3.44 -7.73,-3.98 -1.68,-0.24 -6.68,-0.36 -15.01,-0.36l-16.05 0 0 25.89zm77.84 8.44c0,-10.38 1.57,-19.11 4.67,-26.17 2.3,-5.19 5.48,-9.86 9.49,-13.99 4.01,-4.13 8.39,-7.19 13.16,-9.2 6.35,-2.68 13.68,-4.03 21.98,-4.03 15.03,0 27.03,4.67 36.06,13.99 9.01,9.34 13.52,22.31 13.52,38.93 0,16.48 -4.48,29.38 -13.42,38.68 -8.94,9.32 -20.91,13.96 -35.87,13.96 -15.15,0 -27.22,-4.62 -36.16,-13.89 -8.94,-9.25 -13.42,-22.01 -13.42,-38.27zm21.2 -0.68c0,11.55 2.68,20.29 8.02,26.27 5.33,5.95 12.12,8.94 20.32,8.94 8.22,0 14.96,-2.97 20.25,-8.87 5.26,-5.93 7.9,-14.79 7.9,-26.63 0,-11.69 -2.56,-20.42 -7.71,-26.15 -5.12,-5.76 -11.93,-8.63 -20.43,-8.63 -8.49,0 -15.34,2.92 -20.53,8.73 -5.2,5.83 -7.81,14.61 -7.81,26.34zm107.72 51l-23.95 -101.86 21.2 0 15.15 69.97 18.59 -69.97 24.51 0 17.79 71.15 15.5 -71.15 20.7 0 -24.54 101.86 -22.03 0 -20.08 -76.16 -20.23 76.16 -22.61 0zm119.57 0l0 -101.86 20.63 0 0 101.86 -20.63 0zm40.23 0l0 -101.86 19.97 0 41.92 68.27 0 -68.27 19.07 0 0 101.86 -20.6 0 -41.29 -66.96 0 66.96 -19.06 0zm150.11 -37.41l0 -17.21 44.25 0 0 40.64c-4.29,4.2 -10.53,7.87 -18.71,11.07 -8.16,3.17 -16.43,4.76 -24.83,4.76 -10.64,0 -19.91,-2.22 -27.83,-6.71 -7.9,-4.48 -13.85,-10.91 -17.83,-19.23 -3.98,-8.32 -5.97,-17.4 -5.97,-27.19 0,-10.62 2.22,-20.06 6.66,-28.33 4.46,-8.26 10.95,-14.61 19.51,-19.02 6.54,-3.39 14.65,-5.07 24.38,-5.07 12.63,0 22.52,2.65 29.63,7.97 7.09,5.33 11.66,12.66 13.71,22.05l-20.49 3.84c-1.42,-5 -4.12,-8.96 -8.09,-11.88 -3.94,-2.89 -8.87,-4.34 -14.79,-4.34 -8.96,0 -16.1,2.85 -21.38,8.56 -5.29,5.71 -7.94,14.18 -7.94,25.39 0,12.12 2.68,21.2 8.03,27.25 5.39,6.04 12.4,9.08 21.1,9.08 4.29,0 8.61,-0.85 12.92,-2.54 4.34,-1.68 8.04,-3.75 11.14,-6.17l0 -12.92 -23.47 0zm102.8 37.41l0 -101.86 32.98 0c12.49,0 20.63,0.5 24.42,1.52 5.83,1.54 10.71,4.87 14.65,9.99 3.94,5.12 5.9,11.74 5.9,19.84 0,6.26 -1.14,11.5 -3.39,15.77 -2.28,4.27 -5.15,7.61 -8.63,10.05 -3.49,2.42 -7.05,4.03 -10.65,4.81 -4.91,0.97 -12,1.47 -21.29,1.47l-13.38 0 0 38.41 -20.63 0zm20.63 -84.65l0 29.02 11.22 0c8.09,0 13.47,-0.55 16.19,-1.61 2.73,-1.07 4.86,-2.73 6.4,-5.02 1.54,-2.28 2.32,-4.91 2.32,-7.94 0,-3.73 -1.09,-6.79 -3.25,-9.2 -2.18,-2.42 -4.91,-3.94 -8.25,-4.55 -2.45,-0.45 -7.35,-0.69 -14.75,-0.69l-9.89 0zm74.83 84.65l0 -101.01 20.62 0 0 83.79 51.08 0 0 17.21 -71.7 0zm178.09 0l-22.22 0 -8.8 -23.19 -40.86 0 -8.46 23.19 -21.81 0 39.55 -101.86 21.79 0 40.81 101.86zm-37.7 -40.4l-14.16 -37.7 -13.75 37.7 27.91 0zm61.03 40.4l0 -84.65 -30.16 0 0 -17.21 80.81 0 0 17.21 -30.02 0 0 84.65 -20.63 0zm63.99 0l0 -101.86 70 0 0 17.21 -49.37 0 0 24.19 42.68 0 0 17.21 -42.68 0 0 43.25 -20.63 0zm82.63 -50.32c0,-10.38 1.57,-19.11 4.67,-26.17 2.3,-5.19 5.48,-9.86 9.49,-13.99 4.01,-4.13 8.39,-7.19 13.16,-9.2 6.35,-2.68 13.68,-4.03 21.98,-4.03 15.03,0 27.03,4.67 36.06,13.99 9.01,9.34 13.52,22.31 13.52,38.93 0,16.48 -4.48,29.38 -13.42,38.68 -8.94,9.32 -20.91,13.96 -35.87,13.96 -15.15,0 -27.22,-4.62 -36.16,-13.89 -8.94,-9.25 -13.42,-22.01 -13.42,-38.27zm21.2 -0.68c0,11.55 2.68,20.29 8.02,26.27 5.33,5.95 12.12,8.94 20.32,8.94 8.22,0 14.96,-2.97 20.25,-8.87 5.26,-5.93 7.9,-14.79 7.9,-26.63 0,-11.69 -2.56,-20.42 -7.71,-26.15 -5.12,-5.76 -11.93,-8.63 -20.43,-8.63 -8.49,0 -15.34,2.92 -20.53,8.73 -5.2,5.83 -7.81,14.61 -7.81,26.34zm93.73 51l0 -101.86 43.32 0c10.88,0 18.8,0.92 23.73,2.75 4.96,1.83 8.89,5.07 11.85,9.75 2.97,4.69 4.46,10.03 4.46,16.05 0,7.66 -2.22,13.97 -6.71,18.94 -4.48,4.98 -11.17,8.11 -20.08,9.41 4.44,2.58 8.09,5.43 10.96,8.54 2.89,3.1 6.78,8.63 11.66,16.55l12.43 19.87 -24.59 0 -14.75 -22.24c-5.28,-7.89 -8.91,-12.87 -10.88,-14.94 -1.95,-2.04 -4.01,-3.46 -6.19,-4.22 -2.21,-0.76 -5.67,-1.14 -10.41,-1.14l-4.17 0 0 42.53 -20.63 0zm20.63 -58.75l15.22 0c9.86,0 16,-0.43 18.47,-1.26 2.44,-0.83 4.38,-2.28 5.76,-4.32 1.4,-2.04 2.09,-4.6 2.09,-7.66 0,-3.44 -0.92,-6.19 -2.75,-8.32 -1.82,-2.11 -4.4,-3.44 -7.73,-3.98 -1.68,-0.24 -6.68,-0.36 -15.01,-0.36l-16.05 0 0 25.89zm81.83 58.75l0 -101.86 30.89 0 18.26 69.48 18.04 -69.48 30.97 0 0 101.86 -19.06 0 -0.07 -80.19 -20.08 80.19 -19.82 0 -19.99 -80.19 -0.07 80.19 -19.06 0z"/>
  </g>
 </g>
</svg>
